<svg width="24" height="24" viewBox="0 0 24 24" fill="black" xmlns="http://www.w3.org/2000/svg">
  <path d="M7 18C5.9 18 5 18.9 5 20C5 21.1 5.9 22 7 22C8.1 22 9 21.1 9 20C9 18.9 8.1 18 7 18ZM1 2V4H3L6.6 11.59L5.25 13.04C5.09 13.22 5 13.47 5 13.75C5 14.44 5.56 15 6.25 15H19V13H6.42C6.28 13 6.18 12.89 6.22 12.75L6.6 12H17.55C17.91 12 18.24 11.79 18.41 11.47L21.92 5.24C22.01 5.09 22.06 4.92 22.06 4.75C22.06 4.34 21.72 4 21.31 4H5.21L4.27 2H1ZM17 18C15.9 18 15 18.9 15 20C15 21.1 15.9 22 17 22C18.1 22 19 21.1 19 20C19 18.9 18.1 18 17 18Z"></path>
</svg>
